<svg xmlns="http://www.w3.org/2000/svg" width="448" height="280" viewBox="0 0 448 280"><g><g><g><g><path fill="#bec8d1" d="M291.555 5.332a.889.889 0 1 0 1.778.001.889.889 0 0 0-1.778 0z"/></g><g><path fill="#bec8d1" d="M291.555 24.888a.89.89 0 1 0 1.779 0 .89.89 0 0 0-1.779 0z"/></g><g><path fill="#bec8d1" d="M291.555 44.443a.889.889 0 1 0 1.778 0 .889.889 0 0 0-1.778 0z"/></g><g><path fill="#bec8d1" d="M291.555 64a.89.89 0 1 0 1.779-.001.89.89 0 0 0-1.779 0z"/></g><g><path fill="#bec8d1" d="M291.555 83.555a.889.889 0 1 0 1.778 0 .889.889 0 0 0-1.778 0z"/></g><g><path fill="#bec8d1" d="M291.555 103.11a.889.889 0 1 0 1.778 0 .889.889 0 0 0-1.778 0z"/></g><g><path fill="#bec8d1" d="M291.555 122.666a.89.89 0 1 0 1.779 0 .89.89 0 0 0-1.779 0z"/></g><g><path fill="#bec8d1" d="M291.555 142.222a.889.889 0 1 0 1.778 0 .889.889 0 0 0-1.778 0z"/></g><g><path fill="#bec8d1" d="M291.555 161.777a.889.889 0 1 0 1.778 0 .889.889 0 0 0-1.778 0z"/></g><g><path fill="#bec8d1" d="M291.555 181.333a.89.89 0 1 0 1.779 0 .89.89 0 0 0-1.779 0z"/></g><g><path fill="#bec8d1" d="M291.555 200.888a.889.889 0 1 0 1.778 0 .889.889 0 0 0-1.778 0z"/></g><g><path fill="#bec8d1" d="M291.555 220.444a.89.89 0 1 0 1.779 0 .89.89 0 0 0-1.779 0z"/></g><g><path fill="#bec8d1" d="M291.555 240a.889.889 0 1 0 1.778-.001.889.889 0 0 0-1.778 0z"/></g><g><path fill="#bec8d1" d="M291.555 259.555a.889.889 0 1 0 1.778 0 .889.889 0 0 0-1.778 0z"/></g><g><path fill="#bec8d1" d="M291.555 279.11a.89.89 0 1 0 1.779 0 .89.89 0 0 0-1.779 0z"/></g><g><path fill="#bec8d1" d="M272 5.332a.889.889 0 1 0 1.777.001.889.889 0 0 0-1.777 0z"/></g><g><path fill="#bec8d1" d="M272 24.888a.89.89 0 1 0 1.778 0 .89.89 0 0 0-1.778 0z"/></g><g><path fill="#bec8d1" d="M272 44.443a.889.889 0 1 0 1.777 0 .889.889 0 0 0-1.777 0z"/></g><g><path fill="#bec8d1" d="M272 64a.89.89 0 1 0 1.778-.001.89.89 0 0 0-1.778 0z"/></g><g><path fill="#bec8d1" d="M272 83.555a.889.889 0 1 0 1.777 0 .889.889 0 0 0-1.777 0z"/></g><g><path fill="#bec8d1" d="M272 103.11a.889.889 0 1 0 1.777 0 .889.889 0 0 0-1.777 0z"/></g><g><path fill="#bec8d1" d="M272 122.666a.89.89 0 1 0 1.778 0 .89.89 0 0 0-1.778 0z"/></g><g><path fill="#bec8d1" d="M272 142.222a.889.889 0 1 0 1.777 0 .889.889 0 0 0-1.777 0z"/></g><g><path fill="#bec8d1" d="M272 161.777a.889.889 0 1 0 1.777 0 .889.889 0 0 0-1.777 0z"/></g><g><path fill="#bec8d1" d="M272 181.333a.89.89 0 1 0 1.778 0 .89.89 0 0 0-1.778 0z"/></g><g><path fill="#bec8d1" d="M272 200.888a.889.889 0 1 0 1.777 0 .889.889 0 0 0-1.777 0z"/></g><g><path fill="#bec8d1" d="M272 220.444a.89.89 0 1 0 1.778 0 .89.89 0 0 0-1.778 0z"/></g><g><path fill="#bec8d1" d="M272 240a.889.889 0 1 0 1.777-.001.889.889 0 0 0-1.777 0z"/></g><g><path fill="#bec8d1" d="M272 259.555a.889.889 0 1 0 1.777 0 .889.889 0 0 0-1.777 0z"/></g><g><path fill="#bec8d1" d="M272 279.11a.89.89 0 1 0 1.778 0 .89.89 0 0 0-1.778 0z"/></g><g><path fill="#bec8d1" d="M252.444 5.332a.889.889 0 1 0 1.778.001.889.889 0 0 0-1.778 0z"/></g><g><path fill="#bec8d1" d="M252.444 24.888a.89.89 0 1 0 1.778 0 .89.89 0 0 0-1.778 0z"/></g><g><path fill="#bec8d1" d="M252.444 44.443a.889.889 0 1 0 1.778.001.889.889 0 0 0-1.778 0z"/></g><g><path fill="#bec8d1" d="M252.444 64a.89.89 0 1 0 1.778 0 .89.89 0 0 0-1.778 0z"/></g><g><path fill="#bec8d1" d="M252.444 83.555a.889.889 0 1 0 1.778 0 .889.889 0 0 0-1.778 0z"/></g><g><path fill="#bec8d1" d="M252.444 103.11a.889.889 0 1 0 1.778 0 .889.889 0 0 0-1.778 0z"/></g><g><path fill="#bec8d1" d="M252.444 122.666a.89.89 0 1 0 1.779 0 .89.89 0 0 0-1.779 0z"/></g><g><path fill="#bec8d1" d="M252.444 142.222a.889.889 0 1 0 1.778 0 .889.889 0 0 0-1.778 0z"/></g><g><path fill="#bec8d1" d="M252.444 161.777a.889.889 0 1 0 1.778 0 .889.889 0 0 0-1.778 0z"/></g><g><path fill="#bec8d1" d="M252.444 181.333a.89.89 0 1 0 1.779 0 .89.89 0 0 0-1.779 0z"/></g><g><path fill="#bec8d1" d="M252.444 200.888a.889.889 0 1 0 1.778 0 .889.889 0 0 0-1.778 0z"/></g><g><path fill="#bec8d1" d="M252.444 220.444a.89.89 0 1 0 1.779 0 .89.89 0 0 0-1.779 0z"/></g><g><path fill="#bec8d1" d="M252.444 240a.889.889 0 1 0 1.778 0 .889.889 0 0 0-1.778 0z"/></g><g><path fill="#bec8d1" d="M252.444 259.555a.889.889 0 1 0 1.778 0 .889.889 0 0 0-1.778 0z"/></g><g><path fill="#bec8d1" d="M252.444 279.11a.89.89 0 1 0 1.778 0 .89.89 0 0 0-1.778 0z"/></g><g><path fill="#bec8d1" d="M232.889 5.332a.889.889 0 1 0 1.777.001.889.889 0 0 0-1.777 0z"/></g><g><path fill="#bec8d1" d="M232.889 24.888a.89.89 0 1 0 1.778 0 .89.89 0 0 0-1.778 0z"/></g><g><path fill="#bec8d1" d="M232.889 44.443a.889.889 0 1 0 1.777.001.889.889 0 0 0-1.777 0z"/></g><g><path fill="#bec8d1" d="M232.889 64a.89.89 0 1 0 1.778-.001.89.89 0 0 0-1.778 0z"/></g><g><path fill="#bec8d1" d="M232.889 83.555a.889.889 0 1 0 1.777 0 .889.889 0 0 0-1.777 0z"/></g><g><path fill="#bec8d1" d="M232.889 103.11a.889.889 0 1 0 1.777 0 .889.889 0 0 0-1.777 0z"/></g><g><path fill="#bec8d1" d="M232.889 122.666a.89.89 0 1 0 1.778 0 .89.89 0 0 0-1.778 0z"/></g><g><path fill="#bec8d1" d="M232.889 142.222a.889.889 0 1 0 1.777 0 .889.889 0 0 0-1.777 0z"/></g><g><path fill="#bec8d1" d="M232.889 161.777a.889.889 0 1 0 1.777 0 .889.889 0 0 0-1.777 0z"/></g><g><path fill="#bec8d1" d="M232.889 181.333a.89.89 0 1 0 1.778 0 .89.89 0 0 0-1.778 0z"/></g><g><path fill="#bec8d1" d="M232.889 200.888a.889.889 0 1 0 1.777 0 .889.889 0 0 0-1.777 0z"/></g><g><path fill="#bec8d1" d="M232.889 220.444a.89.89 0 1 0 1.778 0 .89.89 0 0 0-1.778 0z"/></g><g><path fill="#bec8d1" d="M232.889 240a.889.889 0 1 0 1.777-.001.889.889 0 0 0-1.777 0z"/></g><g><path fill="#bec8d1" d="M232.889 259.555a.889.889 0 1 0 1.777 0 .889.889 0 0 0-1.777 0z"/></g><g><path fill="#bec8d1" d="M232.889 279.11a.89.89 0 1 0 1.778 0 .89.89 0 0 0-1.778 0z"/></g><g><path fill="#bec8d1" d="M213.333 5.332a.889.889 0 1 0 1.778 0 .889.889 0 0 0-1.778 0z"/></g><g><path fill="#bec8d1" d="M213.333 24.888a.89.89 0 1 0 1.779 0 .89.89 0 0 0-1.779 0z"/></g><g><path fill="#bec8d1" d="M213.333 44.443a.889.889 0 1 0 1.778 0 .889.889 0 0 0-1.778 0z"/></g><g><path fill="#bec8d1" d="M213.333 64a.89.89 0 1 0 1.779-.001.89.89 0 0 0-1.779 0z"/></g><g><path fill="#bec8d1" d="M213.333 83.555a.889.889 0 1 0 1.778 0 .889.889 0 0 0-1.778 0z"/></g><g><path fill="#bec8d1" d="M213.333 103.11a.889.889 0 1 0 1.778 0 .889.889 0 0 0-1.778 0z"/></g><g><path fill="#bec8d1" d="M213.333 122.666a.89.89 0 1 0 1.779 0 .89.89 0 0 0-1.779 0z"/></g><g><path fill="#bec8d1" d="M213.333 142.222a.889.889 0 1 0 1.778 0 .889.889 0 0 0-1.778 0z"/></g><g><path fill="#bec8d1" d="M213.333 161.777a.889.889 0 1 0 1.778 0 .889.889 0 0 0-1.778 0z"/></g><g><path fill="#bec8d1" d="M213.333 181.333a.89.89 0 1 0 1.779 0 .89.89 0 0 0-1.779 0z"/></g><g><path fill="#bec8d1" d="M213.333 200.888a.889.889 0 1 0 1.778 0 .889.889 0 0 0-1.778 0z"/></g><g><path fill="#bec8d1" d="M213.333 220.444a.89.89 0 1 0 1.779 0 .89.89 0 0 0-1.779 0z"/></g><g><path fill="#bec8d1" d="M213.333 240a.889.889 0 1 0 1.778-.001.889.889 0 0 0-1.778 0z"/></g><g><path fill="#bec8d1" d="M213.333 259.555a.889.889 0 1 0 1.778 0 .889.889 0 0 0-1.778 0z"/></g><g><path fill="#bec8d1" d="M213.333 279.11a.89.89 0 1 0 1.779 0 .89.89 0 0 0-1.779 0z"/></g><g><path fill="#bec8d1" d="M193.778 5.332a.889.889 0 1 0 1.777 0 .889.889 0 0 0-1.777 0z"/></g><g><path fill="#bec8d1" d="M193.778 24.888a.89.89 0 1 0 1.778 0 .89.89 0 0 0-1.778 0z"/></g><g><path fill="#bec8d1" d="M193.778 44.443a.889.889 0 1 0 1.777 0 .889.889 0 0 0-1.777 0z"/></g><g><path fill="#bec8d1" d="M193.778 64a.89.89 0 1 0 1.778-.001.89.89 0 0 0-1.778 0z"/></g><g><path fill="#bec8d1" d="M193.778 83.555a.889.889 0 1 0 1.777 0 .889.889 0 0 0-1.777 0z"/></g><g><path fill="#bec8d1" d="M193.778 103.11a.889.889 0 1 0 1.777 0 .889.889 0 0 0-1.777 0z"/></g><g><path fill="#bec8d1" d="M193.778 122.666a.89.89 0 1 0 1.778 0 .89.89 0 0 0-1.778 0z"/></g><g><path fill="#bec8d1" d="M193.778 142.222a.889.889 0 1 0 1.777 0 .889.889 0 0 0-1.777 0z"/></g><g><path fill="#bec8d1" d="M193.778 161.777a.889.889 0 1 0 1.777 0 .889.889 0 0 0-1.777 0z"/></g><g><path fill="#bec8d1" d="M193.778 181.333a.89.89 0 1 0 1.778 0 .89.89 0 0 0-1.778 0z"/></g><g><path fill="#bec8d1" d="M193.778 200.888a.889.889 0 1 0 1.777 0 .889.889 0 0 0-1.777 0z"/></g><g><path fill="#bec8d1" d="M193.778 220.444a.89.89 0 1 0 1.778 0 .89.89 0 0 0-1.778 0z"/></g><g><path fill="#bec8d1" d="M193.778 240a.889.889 0 1 0 1.777-.001.889.889 0 0 0-1.777 0z"/></g><g><path fill="#bec8d1" d="M193.778 259.555a.889.889 0 1 0 1.777 0 .889.889 0 0 0-1.777 0z"/></g><g><path fill="#bec8d1" d="M193.778 279.11a.89.89 0 1 0 1.778 0 .89.89 0 0 0-1.778 0z"/></g><g><path fill="#bec8d1" d="M174.222 5.332a.889.889 0 1 0 1.778 0 .889.889 0 0 0-1.778 0z"/></g><g><path fill="#bec8d1" d="M174.222 24.888a.89.89 0 1 0 1.779 0 .89.89 0 0 0-1.779 0z"/></g><g><path fill="#bec8d1" d="M174.222 44.443a.889.889 0 1 0 1.778 0 .889.889 0 0 0-1.778 0z"/></g><g><path fill="#bec8d1" d="M174.222 64a.89.89 0 1 0 1.779-.001.89.89 0 0 0-1.779 0z"/></g><g><path fill="#bec8d1" d="M174.222 83.555a.889.889 0 1 0 1.778 0 .889.889 0 0 0-1.778 0z"/></g><g><path fill="#bec8d1" d="M174.222 103.11a.889.889 0 1 0 1.778 0 .889.889 0 0 0-1.778 0z"/></g><g><path fill="#bec8d1" d="M174.222 122.666a.89.89 0 1 0 1.779 0 .89.89 0 0 0-1.779 0z"/></g><g><path fill="#bec8d1" d="M174.222 142.222a.889.889 0 1 0 1.778 0 .889.889 0 0 0-1.778 0z"/></g><g><path fill="#bec8d1" d="M174.222 161.777a.889.889 0 1 0 1.778 0 .889.889 0 0 0-1.778 0z"/></g><g><path fill="#bec8d1" d="M174.222 181.333a.89.89 0 1 0 1.779 0 .89.89 0 0 0-1.779 0z"/></g><g><path fill="#bec8d1" d="M174.222 200.888a.889.889 0 1 0 1.778 0 .889.889 0 0 0-1.778 0z"/></g><g><path fill="#bec8d1" d="M174.222 220.444a.89.89 0 1 0 1.779 0 .89.89 0 0 0-1.779 0z"/></g><g><path fill="#bec8d1" d="M174.222 240a.889.889 0 1 0 1.778-.001.889.889 0 0 0-1.778 0z"/></g><g><path fill="#bec8d1" d="M174.222 259.555a.889.889 0 1 0 1.778 0 .889.889 0 0 0-1.778 0z"/></g><g><path fill="#bec8d1" d="M174.222 279.11a.89.89 0 1 0 1.779 0 .89.89 0 0 0-1.779 0z"/></g><g><path fill="#bec8d1" d="M154.667 5.332a.889.889 0 1 0 1.777 0 .889.889 0 0 0-1.777 0z"/></g><g><path fill="#bec8d1" d="M154.667 24.888a.89.89 0 1 0 1.778 0 .89.89 0 0 0-1.778 0z"/></g><g><path fill="#bec8d1" d="M154.667 44.443a.889.889 0 1 0 1.777 0 .889.889 0 0 0-1.777 0z"/></g><g><path fill="#bec8d1" d="M154.667 64a.89.89 0 1 0 1.778-.001.89.89 0 0 0-1.778 0z"/></g><g><path fill="#bec8d1" d="M154.667 83.555a.889.889 0 1 0 1.777 0 .889.889 0 0 0-1.777 0z"/></g><g><path fill="#bec8d1" d="M154.667 103.11a.889.889 0 1 0 1.777 0 .889.889 0 0 0-1.777 0z"/></g><g><path fill="#bec8d1" d="M154.667 122.666a.89.89 0 1 0 1.778 0 .89.89 0 0 0-1.778 0z"/></g><g><path fill="#bec8d1" d="M154.667 142.222a.889.889 0 1 0 1.777 0 .889.889 0 0 0-1.777 0z"/></g><g><path fill="#bec8d1" d="M154.667 161.777a.889.889 0 1 0 1.777 0 .889.889 0 0 0-1.777 0z"/></g><g><path fill="#bec8d1" d="M154.667 181.333a.89.89 0 1 0 1.778 0 .89.89 0 0 0-1.778 0z"/></g><g><path fill="#bec8d1" d="M154.667 200.888a.889.889 0 1 0 1.777 0 .889.889 0 0 0-1.777 0z"/></g><g><path fill="#bec8d1" d="M154.667 220.444a.89.89 0 1 0 1.778 0 .89.89 0 0 0-1.778 0z"/></g><g><path fill="#bec8d1" d="M154.667 240a.889.889 0 1 0 1.777-.001.889.889 0 0 0-1.777 0z"/></g><g><path fill="#bec8d1" d="M154.667 259.555a.889.889 0 1 0 1.777 0 .889.889 0 0 0-1.777 0z"/></g><g><path fill="#bec8d1" d="M154.667 279.11a.89.89 0 1 0 1.778 0 .89.89 0 0 0-1.778 0z"/></g><g><path fill="#bec8d1" d="M136.889 5.332a.889.889 0 1 0 1.777.001.889.889 0 0 0-1.777 0z"/></g><g><path fill="#bec8d1" d="M136.889 24.888a.89.89 0 1 0 1.778 0 .89.89 0 0 0-1.778 0z"/></g><g><path fill="#bec8d1" d="M136.889 44.443a.889.889 0 1 0 1.777.001.889.889 0 0 0-1.777 0z"/></g><g><path fill="#bec8d1" d="M136.889 64a.89.89 0 1 0 1.778-.001.89.89 0 0 0-1.778 0z"/></g><g><path fill="#bec8d1" d="M136.889 83.555a.889.889 0 1 0 1.777 0 .889.889 0 0 0-1.777 0z"/></g><g><path fill="#bec8d1" d="M136.889 103.11a.889.889 0 1 0 1.777 0 .889.889 0 0 0-1.777 0z"/></g><g><path fill="#bec8d1" d="M136.889 122.666a.89.89 0 1 0 1.778 0 .89.89 0 0 0-1.778 0z"/></g><g><path fill="#bec8d1" d="M136.889 142.222a.889.889 0 1 0 1.777 0 .889.889 0 0 0-1.777 0z"/></g><g><path fill="#bec8d1" d="M136.889 161.777a.889.889 0 1 0 1.777 0 .889.889 0 0 0-1.777 0z"/></g><g><path fill="#bec8d1" d="M136.889 181.333a.89.89 0 1 0 1.778 0 .89.89 0 0 0-1.778 0z"/></g><g><path fill="#bec8d1" d="M136.889 200.888a.889.889 0 1 0 1.777 0 .889.889 0 0 0-1.777 0z"/></g><g><path fill="#bec8d1" d="M136.889 220.444a.89.89 0 1 0 1.778 0 .89.89 0 0 0-1.778 0z"/></g><g><path fill="#bec8d1" d="M136.889 240a.889.889 0 1 0 1.777-.001.889.889 0 0 0-1.777 0z"/></g><g><path fill="#bec8d1" d="M136.889 259.555a.889.889 0 1 0 1.777 0 .889.889 0 0 0-1.777 0z"/></g><g><path fill="#bec8d1" d="M136.889 279.11a.89.89 0 1 0 1.778 0 .89.89 0 0 0-1.778 0z"/></g><g><path fill="#bec8d1" d="M117.333 5.332a.889.889 0 1 0 1.778.001.889.889 0 0 0-1.778 0z"/></g><g><path fill="#bec8d1" d="M117.333 24.888a.89.89 0 1 0 1.779 0 .89.89 0 0 0-1.779 0z"/></g><g><path fill="#bec8d1" d="M117.333 44.443a.889.889 0 1 0 1.778.001.889.889 0 0 0-1.778 0z"/></g><g><path fill="#bec8d1" d="M117.333 64a.89.89 0 1 0 1.779-.001.89.89 0 0 0-1.779 0z"/></g><g><path fill="#bec8d1" d="M117.333 83.555a.889.889 0 1 0 1.778 0 .889.889 0 0 0-1.778 0z"/></g><g><path fill="#bec8d1" d="M117.333 103.11a.889.889 0 1 0 1.778 0 .889.889 0 0 0-1.778 0z"/></g><g><path fill="#bec8d1" d="M117.333 122.666a.89.89 0 1 0 1.779 0 .89.89 0 0 0-1.779 0z"/></g><g><path fill="#bec8d1" d="M117.333 142.222a.889.889 0 1 0 1.778 0 .889.889 0 0 0-1.778 0z"/></g><g><path fill="#bec8d1" d="M117.333 161.777a.889.889 0 1 0 1.778 0 .889.889 0 0 0-1.778 0z"/></g><g><path fill="#bec8d1" d="M117.333 181.333a.89.89 0 1 0 1.779 0 .89.89 0 0 0-1.779 0z"/></g><g><path fill="#bec8d1" d="M117.333 200.888a.889.889 0 1 0 1.778 0 .889.889 0 0 0-1.778 0z"/></g><g><path fill="#bec8d1" d="M117.333 220.444a.89.89 0 1 0 1.779 0 .89.89 0 0 0-1.779 0z"/></g><g><path fill="#bec8d1" d="M117.333 240a.889.889 0 1 0 1.778-.001.889.889 0 0 0-1.778 0z"/></g><g><path fill="#bec8d1" d="M117.333 259.555a.889.889 0 1 0 1.778 0 .889.889 0 0 0-1.778 0z"/></g><g><path fill="#bec8d1" d="M117.333 279.11a.89.89 0 1 0 1.779 0 .89.89 0 0 0-1.779 0z"/></g><g><path fill="#bec8d1" d="M97.778 5.332a.889.889 0 1 0 1.777 0 .889.889 0 0 0-1.777 0z"/></g><g><path fill="#bec8d1" d="M97.778 24.888a.89.89 0 1 0 1.778 0 .89.89 0 0 0-1.778 0z"/></g><g><path fill="#bec8d1" d="M97.778 44.443a.889.889 0 1 0 1.777 0 .889.889 0 0 0-1.777 0z"/></g><g><path fill="#bec8d1" d="M97.778 64a.89.89 0 1 0 1.778-.001.89.89 0 0 0-1.778 0z"/></g><g><path fill="#bec8d1" d="M97.778 83.555a.889.889 0 1 0 1.777 0 .889.889 0 0 0-1.777 0z"/></g><g><path fill="#bec8d1" d="M97.778 103.11a.889.889 0 1 0 1.777 0 .889.889 0 0 0-1.777 0z"/></g><g><path fill="#bec8d1" d="M97.778 122.666a.89.89 0 1 0 1.778 0 .89.89 0 0 0-1.778 0z"/></g><g><path fill="#bec8d1" d="M97.778 142.222a.889.889 0 1 0 1.777 0 .889.889 0 0 0-1.777 0z"/></g><g><path fill="#bec8d1" d="M97.778 161.777a.889.889 0 1 0 1.777 0 .889.889 0 0 0-1.777 0z"/></g><g><path fill="#bec8d1" d="M97.778 181.333a.89.89 0 1 0 1.778 0 .89.89 0 0 0-1.778 0z"/></g><g><path fill="#bec8d1" d="M97.778 200.888a.889.889 0 1 0 1.777 0 .889.889 0 0 0-1.777 0z"/></g><g><path fill="#bec8d1" d="M97.778 220.444a.89.89 0 1 0 1.778 0 .89.89 0 0 0-1.778 0z"/></g><g><path fill="#bec8d1" d="M97.778 240a.889.889 0 1 0 1.777-.001.889.889 0 0 0-1.777 0z"/></g><g><path fill="#bec8d1" d="M97.778 259.555a.889.889 0 1 0 1.777 0 .889.889 0 0 0-1.777 0z"/></g><g><path fill="#bec8d1" d="M97.778 279.11a.89.89 0 1 0 1.778 0 .89.89 0 0 0-1.778 0z"/></g><g><path fill="#bec8d1" d="M78.222 5.332a.889.889 0 1 0 1.778 0 .889.889 0 0 0-1.778 0z"/></g><g><path fill="#bec8d1" d="M78.222 24.888a.89.89 0 1 0 1.779 0 .89.89 0 0 0-1.779 0z"/></g><g><path fill="#bec8d1" d="M78.222 44.443a.889.889 0 1 0 1.778 0 .889.889 0 0 0-1.778 0z"/></g><g><path fill="#bec8d1" d="M78.222 64a.89.89 0 1 0 1.779-.001.89.89 0 0 0-1.779 0z"/></g><g><path fill="#bec8d1" d="M78.222 83.555a.889.889 0 1 0 1.778 0 .889.889 0 0 0-1.778 0z"/></g><g><path fill="#bec8d1" d="M78.222 103.11a.889.889 0 1 0 1.778 0 .889.889 0 0 0-1.778 0z"/></g><g><path fill="#bec8d1" d="M78.222 122.666a.89.89 0 1 0 1.779 0 .89.89 0 0 0-1.779 0z"/></g><g><path fill="#bec8d1" d="M78.222 142.222a.889.889 0 1 0 1.778 0 .889.889 0 0 0-1.778 0z"/></g><g><path fill="#bec8d1" d="M78.222 161.777a.889.889 0 1 0 1.778 0 .889.889 0 0 0-1.778 0z"/></g><g><path fill="#bec8d1" d="M78.222 181.333a.89.89 0 1 0 1.779 0 .89.89 0 0 0-1.779 0z"/></g><g><path fill="#bec8d1" d="M78.222 200.888a.889.889 0 1 0 1.778 0 .889.889 0 0 0-1.778 0z"/></g><g><path fill="#bec8d1" d="M78.222 220.444a.89.89 0 1 0 1.779 0 .89.89 0 0 0-1.779 0z"/></g><g><path fill="#bec8d1" d="M78.222 240a.889.889 0 1 0 1.778-.001.889.889 0 0 0-1.778 0z"/></g><g><path fill="#bec8d1" d="M78.222 259.555a.889.889 0 1 0 1.778 0 .889.889 0 0 0-1.778 0z"/></g><g><path fill="#bec8d1" d="M78.222 279.11a.89.89 0 1 0 1.779 0 .89.89 0 0 0-1.779 0z"/></g><g><path fill="#bec8d1" d="M58.667 5.332a.889.889 0 1 0 1.777 0 .889.889 0 0 0-1.777 0z"/></g><g><path fill="#bec8d1" d="M58.667 24.888a.89.89 0 1 0 1.778 0 .89.89 0 0 0-1.778 0z"/></g><g><path fill="#bec8d1" d="M58.667 44.443a.889.889 0 1 0 1.777 0 .889.889 0 0 0-1.777 0z"/></g><g><path fill="#bec8d1" d="M58.667 64a.89.89 0 1 0 1.778-.001.89.89 0 0 0-1.778 0z"/></g><g><path fill="#bec8d1" d="M58.667 83.555a.889.889 0 1 0 1.777 0 .889.889 0 0 0-1.777 0z"/></g><g><path fill="#bec8d1" d="M58.667 103.11a.889.889 0 1 0 1.777 0 .889.889 0 0 0-1.777 0z"/></g><g><path fill="#bec8d1" d="M58.667 122.666a.89.89 0 1 0 1.778 0 .89.89 0 0 0-1.778 0z"/></g><g><path fill="#bec8d1" d="M58.667 142.222a.889.889 0 1 0 1.777 0 .889.889 0 0 0-1.777 0z"/></g><g><path fill="#bec8d1" d="M58.667 161.777a.889.889 0 1 0 1.777 0 .889.889 0 0 0-1.777 0z"/></g><g><path fill="#bec8d1" d="M58.667 181.333a.89.89 0 1 0 1.778 0 .89.89 0 0 0-1.778 0z"/></g><g><path fill="#bec8d1" d="M58.667 200.888a.889.889 0 1 0 1.777 0 .889.889 0 0 0-1.777 0z"/></g><g><path fill="#bec8d1" d="M58.667 220.444a.89.89 0 1 0 1.778 0 .89.89 0 0 0-1.778 0z"/></g><g><path fill="#bec8d1" d="M58.667 240a.889.889 0 1 0 1.777-.001.889.889 0 0 0-1.777 0z"/></g><g><path fill="#bec8d1" d="M58.667 259.555a.889.889 0 1 0 1.777 0 .889.889 0 0 0-1.777 0z"/></g><g><path fill="#bec8d1" d="M58.667 279.11a.89.89 0 1 0 1.778 0 .89.89 0 0 0-1.778 0z"/></g><g><path fill="#bec8d1" d="M39.111 5.332a.889.889 0 1 0 1.778 0 .889.889 0 0 0-1.778 0z"/></g><g><path fill="#bec8d1" d="M39.111 24.888a.89.89 0 1 0 1.779 0 .89.89 0 0 0-1.779 0z"/></g><g><path fill="#bec8d1" d="M39.111 44.443a.889.889 0 1 0 1.778 0 .889.889 0 0 0-1.778 0z"/></g><g><path fill="#bec8d1" d="M39.111 64a.89.89 0 1 0 1.779-.001.89.89 0 0 0-1.779 0z"/></g><g><path fill="#bec8d1" d="M39.111 83.555a.889.889 0 1 0 1.778 0 .889.889 0 0 0-1.778 0z"/></g><g><path fill="#bec8d1" d="M39.111 103.11a.889.889 0 1 0 1.778 0 .889.889 0 0 0-1.778 0z"/></g><g><path fill="#bec8d1" d="M39.111 122.666a.89.89 0 1 0 1.779 0 .89.89 0 0 0-1.779 0z"/></g><g><path fill="#bec8d1" d="M39.111 142.222a.889.889 0 1 0 1.778 0 .889.889 0 0 0-1.778 0z"/></g><g><path fill="#bec8d1" d="M39.111 161.777a.889.889 0 1 0 1.778 0 .889.889 0 0 0-1.778 0z"/></g><g><path fill="#bec8d1" d="M39.111 181.333a.89.89 0 1 0 1.779 0 .89.89 0 0 0-1.779 0z"/></g><g><path fill="#bec8d1" d="M39.111 200.888a.889.889 0 1 0 1.778 0 .889.889 0 0 0-1.778 0z"/></g><g><path fill="#bec8d1" d="M39.111 220.444a.89.89 0 1 0 1.779 0 .89.89 0 0 0-1.779 0z"/></g><g><path fill="#bec8d1" d="M39.111 240a.889.889 0 1 0 1.778-.001.889.889 0 0 0-1.778 0z"/></g><g><path fill="#bec8d1" d="M39.111 259.555a.889.889 0 1 0 1.778 0 .889.889 0 0 0-1.778 0z"/></g><g><path fill="#bec8d1" d="M39.111 279.11a.89.89 0 1 0 1.779 0 .89.89 0 0 0-1.779 0z"/></g><g><path fill="#bec8d1" d="M19.556 5.332a.889.889 0 1 0 1.777.001.889.889 0 0 0-1.777 0z"/></g><g><path fill="#bec8d1" d="M19.556 24.888a.89.89 0 1 0 1.778 0 .89.89 0 0 0-1.778 0z"/></g><g><path fill="#bec8d1" d="M19.556 44.443a.889.889 0 1 0 1.777 0 .889.889 0 0 0-1.777 0z"/></g><g><path fill="#bec8d1" d="M19.556 64a.89.89 0 1 0 1.778-.001.89.89 0 0 0-1.778 0z"/></g><g><path fill="#bec8d1" d="M19.556 83.555a.889.889 0 1 0 1.777 0 .889.889 0 0 0-1.777 0z"/></g><g><path fill="#bec8d1" d="M19.556 103.11a.889.889 0 1 0 1.777 0 .889.889 0 0 0-1.777 0z"/></g><g><path fill="#bec8d1" d="M19.556 122.666a.89.89 0 1 0 1.778 0 .89.89 0 0 0-1.778 0z"/></g><g><path fill="#bec8d1" d="M19.556 142.222a.889.889 0 1 0 1.777 0 .889.889 0 0 0-1.777 0z"/></g><g><path fill="#bec8d1" d="M19.556 161.777a.889.889 0 1 0 1.777 0 .889.889 0 0 0-1.777 0z"/></g><g><path fill="#bec8d1" d="M19.556 181.333a.89.89 0 1 0 1.778 0 .89.89 0 0 0-1.778 0z"/></g><g><path fill="#bec8d1" d="M19.556 200.888a.889.889 0 1 0 1.777 0 .889.889 0 0 0-1.777 0z"/></g><g><path fill="#bec8d1" d="M19.556 220.444a.89.89 0 1 0 1.778 0 .89.89 0 0 0-1.778 0z"/></g><g><path fill="#bec8d1" d="M19.556 240a.889.889 0 1 0 1.777-.001.889.889 0 0 0-1.777 0z"/></g><g><path fill="#bec8d1" d="M19.556 259.555a.889.889 0 1 0 1.777 0 .889.889 0 0 0-1.777 0z"/></g><g><path fill="#bec8d1" d="M19.556 279.11a.89.89 0 1 0 1.778 0 .89.89 0 0 0-1.778 0z"/></g><g><path fill="#bec8d1" d="M0 5.332a.889.889 0 1 0 1.777.001.889.889 0 0 0-1.777 0z"/></g><g><path fill="#bec8d1" d="M0 24.888a.89.89 0 1 0 1.778 0 .89.89 0 0 0-1.778 0z"/></g><g><path fill="#bec8d1" d="M0 44.443a.889.889 0 1 0 1.777.001.889.889 0 0 0-1.777 0z"/></g><g><path fill="#bec8d1" d="M0 64a.89.89 0 1 0 1.778 0A.89.89 0 0 0 0 64z"/></g><g><path fill="#bec8d1" d="M0 83.555a.889.889 0 1 0 1.777 0 .889.889 0 0 0-1.777 0z"/></g><g><path fill="#bec8d1" d="M0 103.11a.889.889 0 1 0 1.777 0 .889.889 0 0 0-1.777 0z"/></g><g><path fill="#bec8d1" d="M0 122.666a.89.89 0 1 0 1.778 0 .89.89 0 0 0-1.778 0z"/></g><g><path fill="#bec8d1" d="M0 142.222a.889.889 0 1 0 1.777 0 .889.889 0 0 0-1.777 0z"/></g><g><path fill="#bec8d1" d="M0 161.777a.889.889 0 1 0 1.777 0 .889.889 0 0 0-1.777 0z"/></g><g><path fill="#bec8d1" d="M0 181.333a.89.89 0 1 0 1.778 0 .89.89 0 0 0-1.778 0z"/></g><g><path fill="#bec8d1" d="M0 200.888a.889.889 0 1 0 1.778 0 .889.889 0 0 0-1.778 0z"/></g><g><path fill="#bec8d1" d="M0 220.444a.89.89 0 1 0 1.778 0 .89.89 0 0 0-1.778 0z"/></g><g><path fill="#bec8d1" d="M0 240a.889.889 0 1 0 1.777 0A.889.889 0 0 0 0 240z"/></g><g><path fill="#bec8d1" d="M0 259.555a.889.889 0 1 0 1.777 0 .889.889 0 0 0-1.777 0z"/></g><g><path fill="#bec8d1" d="M0 279.11a.89.89 0 1 0 1.778 0 .89.89 0 0 0-1.778 0z"/></g><g><path fill="#bec8d1" d="M446.222.888a.889.889 0 1 0 1.778 0 .889.889 0 0 0-1.778 0z"/></g><g><path fill="#bec8d1" d="M446.222 20.444a.89.89 0 1 0 1.778 0 .89.89 0 0 0-1.778 0z"/></g><g><path fill="#bec8d1" d="M446.222 39.999a.889.889 0 1 0 1.778 0 .889.889 0 0 0-1.778 0z"/></g><g><path fill="#bec8d1" d="M446.222 59.555a.89.89 0 1 0 1.778 0 .89.89 0 0 0-1.778 0z"/></g><g><path fill="#bec8d1" d="M446.222 79.11a.889.889 0 1 0 1.778 0 .889.889 0 0 0-1.778 0z"/></g><g><path fill="#bec8d1" d="M446.222 98.666a.889.889 0 1 0 1.778 0 .889.889 0 0 0-1.778 0z"/></g><g><path fill="#bec8d1" d="M446.222 118.222a.89.89 0 1 0 1.778 0 .89.89 0 0 0-1.778 0z"/></g><g><path fill="#bec8d1" d="M446.222 137.777a.889.889 0 1 0 1.778 0 .889.889 0 0 0-1.778 0z"/></g><g><path fill="#bec8d1" d="M446.222 157.333a.889.889 0 1 0 1.778 0 .889.889 0 0 0-1.778 0z"/></g><g><path fill="#bec8d1" d="M446.222 176.888a.89.89 0 1 0 1.778 0 .89.89 0 0 0-1.778 0z"/></g><g><path fill="#bec8d1" d="M446.222 196.444a.889.889 0 1 0 1.778 0 .889.889 0 0 0-1.778 0z"/></g><g><path fill="#bec8d1" d="M446.222 216a.89.89 0 1 0 1.778-.001.89.89 0 0 0-1.778 0z"/></g><g><path fill="#bec8d1" d="M446.222 235.555a.889.889 0 1 0 1.777 0 .889.889 0 0 0-1.777 0z"/></g><g><path fill="#bec8d1" d="M446.222 255.11a.889.889 0 1 0 1.778 0 .889.889 0 0 0-1.778 0z"/></g><g><path fill="#bec8d1" d="M446.222 274.666a.89.89 0 1 0 1.778 0 .89.89 0 0 0-1.778 0z"/></g><g><path fill="#bec8d1" d="M426.667 5.332a.889.889 0 1 0 1.777.001.889.889 0 0 0-1.777 0z"/></g><g><path fill="#bec8d1" d="M426.667 24.888a.89.89 0 1 0 1.778 0 .89.89 0 0 0-1.778 0z"/></g><g><path fill="#bec8d1" d="M426.667 44.443a.889.889 0 1 0 1.777 0 .889.889 0 0 0-1.777 0z"/></g><g><path fill="#bec8d1" d="M426.667 64a.89.89 0 1 0 1.778-.001.89.89 0 0 0-1.778 0z"/></g><g><path fill="#bec8d1" d="M426.667 83.555a.889.889 0 1 0 1.777 0 .889.889 0 0 0-1.777 0z"/></g><g><path fill="#bec8d1" d="M426.667 103.11a.889.889 0 1 0 1.777 0 .889.889 0 0 0-1.777 0z"/></g><g><path fill="#bec8d1" d="M426.667 122.666a.89.89 0 1 0 1.778 0 .89.89 0 0 0-1.778 0z"/></g><g><path fill="#bec8d1" d="M426.667 142.222a.889.889 0 1 0 1.777 0 .889.889 0 0 0-1.777 0z"/></g><g><path fill="#bec8d1" d="M426.667 161.777a.889.889 0 1 0 1.777 0 .889.889 0 0 0-1.777 0z"/></g><g><path fill="#bec8d1" d="M426.667 181.333a.89.89 0 1 0 1.778 0 .89.89 0 0 0-1.778 0z"/></g><g><path fill="#bec8d1" d="M426.667 200.888a.889.889 0 1 0 1.777 0 .889.889 0 0 0-1.777 0z"/></g><g><path fill="#bec8d1" d="M426.667 220.444a.89.89 0 1 0 1.778 0 .89.89 0 0 0-1.778 0z"/></g><g><path fill="#bec8d1" d="M426.667 240a.889.889 0 1 0 1.777-.001.889.889 0 0 0-1.777 0z"/></g><g><path fill="#bec8d1" d="M426.667 259.555a.889.889 0 1 0 1.777 0 .889.889 0 0 0-1.777 0z"/></g><g><path fill="#bec8d1" d="M426.667 279.11a.89.89 0 1 0 1.778 0 .89.89 0 0 0-1.778 0z"/></g><g><path fill="#bec8d1" d="M407.111 5.332a.889.889 0 1 0 1.778.001.889.889 0 0 0-1.778 0z"/></g><g><path fill="#bec8d1" d="M407.111 24.888a.89.89 0 1 0 1.778 0 .89.89 0 0 0-1.778 0z"/></g><g><path fill="#bec8d1" d="M407.111 44.443a.889.889 0 1 0 1.778 0 .889.889 0 0 0-1.778 0z"/></g><g><path fill="#bec8d1" d="M407.111 64a.89.89 0 1 0 1.778-.001.89.89 0 0 0-1.778 0z"/></g><g><path fill="#bec8d1" d="M407.111 83.555a.889.889 0 1 0 1.777 0 .889.889 0 0 0-1.777 0z"/></g><g><path fill="#bec8d1" d="M407.111 103.11a.889.889 0 1 0 1.778 0 .889.889 0 0 0-1.778 0z"/></g><g><path fill="#bec8d1" d="M407.111 122.666a.89.89 0 1 0 1.778 0 .89.89 0 0 0-1.778 0z"/></g><g><path fill="#bec8d1" d="M407.111 142.222a.889.889 0 1 0 1.777 0 .889.889 0 0 0-1.777 0z"/></g><g><path fill="#bec8d1" d="M407.111 161.777a.889.889 0 1 0 1.778 0 .889.889 0 0 0-1.778 0z"/></g><g><path fill="#bec8d1" d="M407.111 181.333a.89.89 0 1 0 1.778 0 .89.89 0 0 0-1.778 0z"/></g><g><path fill="#bec8d1" d="M407.111 200.888a.889.889 0 1 0 1.778 0 .889.889 0 0 0-1.778 0z"/></g><g><path fill="#bec8d1" d="M407.111 220.444a.89.89 0 1 0 1.778 0 .89.89 0 0 0-1.778 0z"/></g><g><path fill="#bec8d1" d="M407.111 240a.889.889 0 1 0 1.777-.001.889.889 0 0 0-1.777 0z"/></g><g><path fill="#bec8d1" d="M407.111 259.555a.889.889 0 1 0 1.778 0 .889.889 0 0 0-1.778 0z"/></g><g><path fill="#bec8d1" d="M407.111 279.11a.89.89 0 1 0 1.778 0 .89.89 0 0 0-1.778 0z"/></g><g><path fill="#bec8d1" d="M387.555 5.332a.889.889 0 1 0 1.778.001.889.889 0 0 0-1.778 0z"/></g><g><path fill="#bec8d1" d="M387.555 24.888a.89.89 0 1 0 1.779 0 .89.89 0 0 0-1.779 0z"/></g><g><path fill="#bec8d1" d="M387.555 44.443a.889.889 0 1 0 1.778 0 .889.889 0 0 0-1.778 0z"/></g><g><path fill="#bec8d1" d="M387.555 64a.89.89 0 1 0 1.779-.001.89.89 0 0 0-1.779 0z"/></g><g><path fill="#bec8d1" d="M387.555 83.555a.889.889 0 1 0 1.778 0 .889.889 0 0 0-1.778 0z"/></g><g><path fill="#bec8d1" d="M387.555 103.11a.889.889 0 1 0 1.778 0 .889.889 0 0 0-1.778 0z"/></g><g><path fill="#bec8d1" d="M387.555 122.666a.89.89 0 1 0 1.779 0 .89.89 0 0 0-1.779 0z"/></g><g><path fill="#bec8d1" d="M387.555 142.222a.889.889 0 1 0 1.778 0 .889.889 0 0 0-1.778 0z"/></g><g><path fill="#bec8d1" d="M387.555 161.777a.889.889 0 1 0 1.778 0 .889.889 0 0 0-1.778 0z"/></g><g><path fill="#bec8d1" d="M387.555 181.333a.89.89 0 1 0 1.779 0 .89.89 0 0 0-1.779 0z"/></g><g><path fill="#bec8d1" d="M387.555 200.888a.889.889 0 1 0 1.778 0 .889.889 0 0 0-1.778 0z"/></g><g><path fill="#bec8d1" d="M387.555 220.444a.89.89 0 1 0 1.779 0 .89.89 0 0 0-1.779 0z"/></g><g><path fill="#bec8d1" d="M387.555 240a.889.889 0 1 0 1.778-.001.889.889 0 0 0-1.778 0z"/></g><g><path fill="#bec8d1" d="M387.555 259.555a.889.889 0 1 0 1.778 0 .889.889 0 0 0-1.778 0z"/></g><g><path fill="#bec8d1" d="M387.555 279.11a.89.89 0 1 0 1.779 0 .89.89 0 0 0-1.779 0z"/></g><g><path fill="#bec8d1" d="M368 5.332a.889.889 0 1 0 1.777.001.889.889 0 0 0-1.777 0z"/></g><g><path fill="#bec8d1" d="M368 24.888a.89.89 0 1 0 1.778 0 .89.89 0 0 0-1.778 0z"/></g><g><path fill="#bec8d1" d="M368 44.443a.889.889 0 1 0 1.777.001.889.889 0 0 0-1.777 0z"/></g><g><path fill="#bec8d1" d="M368 64a.89.89 0 1 0 1.778 0A.89.89 0 0 0 368 64z"/></g><g><path fill="#bec8d1" d="M368 83.555a.889.889 0 1 0 1.777 0 .889.889 0 0 0-1.777 0z"/></g><g><path fill="#bec8d1" d="M368 103.11a.889.889 0 1 0 1.777 0 .889.889 0 0 0-1.777 0z"/></g><g><path fill="#bec8d1" d="M368 122.666a.89.89 0 1 0 1.778 0 .89.89 0 0 0-1.778 0z"/></g><g><path fill="#bec8d1" d="M368 142.222a.889.889 0 1 0 1.777 0 .889.889 0 0 0-1.777 0z"/></g><g><path fill="#bec8d1" d="M368 161.777a.889.889 0 1 0 1.777 0 .889.889 0 0 0-1.777 0z"/></g><g><path fill="#bec8d1" d="M368 181.333a.89.89 0 1 0 1.778 0 .89.89 0 0 0-1.778 0z"/></g><g><path fill="#bec8d1" d="M368 200.888a.889.889 0 1 0 1.777 0 .889.889 0 0 0-1.777 0z"/></g><g><path fill="#bec8d1" d="M368 220.444a.89.89 0 1 0 1.778 0 .89.89 0 0 0-1.778 0z"/></g><g><path fill="#bec8d1" d="M368 240a.889.889 0 1 0 1.777 0 .889.889 0 0 0-1.777 0z"/></g><g><path fill="#bec8d1" d="M368 259.555a.889.889 0 1 0 1.777 0 .889.889 0 0 0-1.777 0z"/></g><g><path fill="#bec8d1" d="M368 279.11a.89.89 0 1 0 1.778 0 .89.89 0 0 0-1.778 0z"/></g><g><path fill="#bec8d1" d="M348.444 5.332a.889.889 0 1 0 1.778.001.889.889 0 0 0-1.778 0z"/></g><g><path fill="#bec8d1" d="M348.444 24.888a.89.89 0 1 0 1.778 0 .89.89 0 0 0-1.778 0z"/></g><g><path fill="#bec8d1" d="M348.444 44.443a.889.889 0 1 0 1.778.001.889.889 0 0 0-1.778 0z"/></g><g><path fill="#bec8d1" d="M348.444 64a.89.89 0 1 0 1.778 0 .89.89 0 0 0-1.778 0z"/></g><g><path fill="#bec8d1" d="M348.444 83.555a.889.889 0 1 0 1.778 0 .889.889 0 0 0-1.778 0z"/></g><g><path fill="#bec8d1" d="M348.444 103.11a.889.889 0 1 0 1.778 0 .889.889 0 0 0-1.778 0z"/></g><g><path fill="#bec8d1" d="M348.444 122.666a.89.89 0 1 0 1.779 0 .89.89 0 0 0-1.779 0z"/></g><g><path fill="#bec8d1" d="M348.444 142.222a.889.889 0 1 0 1.778 0 .889.889 0 0 0-1.778 0z"/></g><g><path fill="#bec8d1" d="M348.444 161.777a.889.889 0 1 0 1.778 0 .889.889 0 0 0-1.778 0z"/></g><g><path fill="#bec8d1" d="M348.444 181.333a.89.89 0 1 0 1.779 0 .89.89 0 0 0-1.779 0z"/></g><g><path fill="#bec8d1" d="M348.444 200.888a.889.889 0 1 0 1.778 0 .889.889 0 0 0-1.778 0z"/></g><g><path fill="#bec8d1" d="M348.444 220.444a.89.89 0 1 0 1.779 0 .89.89 0 0 0-1.779 0z"/></g><g><path fill="#bec8d1" d="M348.444 240a.889.889 0 1 0 1.778 0 .889.889 0 0 0-1.778 0z"/></g><g><path fill="#bec8d1" d="M348.444 259.555a.889.889 0 1 0 1.778 0 .889.889 0 0 0-1.778 0z"/></g><g><path fill="#bec8d1" d="M348.444 279.11a.89.89 0 1 0 1.778 0 .89.89 0 0 0-1.778 0z"/></g><g><path fill="#bec8d1" d="M328.889 5.332a.889.889 0 1 0 1.777.001.889.889 0 0 0-1.777 0z"/></g><g><path fill="#bec8d1" d="M328.889 24.888a.89.89 0 1 0 1.778 0 .89.89 0 0 0-1.778 0z"/></g><g><path fill="#bec8d1" d="M328.889 44.443a.889.889 0 1 0 1.777.001.889.889 0 0 0-1.777 0z"/></g><g><path fill="#bec8d1" d="M328.889 64a.89.89 0 1 0 1.778 0 .89.89 0 0 0-1.778 0z"/></g><g><path fill="#bec8d1" d="M328.889 83.555a.889.889 0 1 0 1.777 0 .889.889 0 0 0-1.777 0z"/></g><g><path fill="#bec8d1" d="M328.889 103.11a.889.889 0 1 0 1.777 0 .889.889 0 0 0-1.777 0z"/></g><g><path fill="#bec8d1" d="M328.889 122.666a.89.89 0 1 0 1.778 0 .89.89 0 0 0-1.778 0z"/></g><g><path fill="#bec8d1" d="M328.889 142.222a.889.889 0 1 0 1.777 0 .889.889 0 0 0-1.777 0z"/></g><g><path fill="#bec8d1" d="M328.889 161.777a.889.889 0 1 0 1.777 0 .889.889 0 0 0-1.777 0z"/></g><g><path fill="#bec8d1" d="M328.889 181.333a.89.89 0 1 0 1.778 0 .89.89 0 0 0-1.778 0z"/></g><g><path fill="#bec8d1" d="M328.889 200.888a.889.889 0 1 0 1.777 0 .889.889 0 0 0-1.777 0z"/></g><g><path fill="#bec8d1" d="M328.889 220.444a.89.89 0 1 0 1.778 0 .89.89 0 0 0-1.778 0z"/></g><g><path fill="#bec8d1" d="M328.889 240a.889.889 0 1 0 1.777 0 .889.889 0 0 0-1.777 0z"/></g><g><path fill="#bec8d1" d="M328.889 259.555a.889.889 0 1 0 1.777 0 .889.889 0 0 0-1.777 0z"/></g><g><path fill="#bec8d1" d="M328.889 279.11a.89.89 0 1 0 1.778 0 .89.89 0 0 0-1.778 0z"/></g><g><path fill="#bec8d1" d="M309.333 5.332a.889.889 0 1 0 1.778.001.889.889 0 0 0-1.778 0z"/></g><g><path fill="#bec8d1" d="M309.333 24.888a.89.89 0 1 0 1.779 0 .89.89 0 0 0-1.779 0z"/></g><g><path fill="#bec8d1" d="M309.333 44.443a.889.889 0 1 0 1.778 0 .889.889 0 0 0-1.778 0z"/></g><g><path fill="#bec8d1" d="M309.333 64a.89.89 0 1 0 1.779-.001.89.89 0 0 0-1.779 0z"/></g><g><path fill="#bec8d1" d="M309.333 83.555a.889.889 0 1 0 1.778 0 .889.889 0 0 0-1.778 0z"/></g><g><path fill="#bec8d1" d="M309.333 103.11a.889.889 0 1 0 1.778 0 .889.889 0 0 0-1.778 0z"/></g><g><path fill="#bec8d1" d="M309.333 122.666a.89.89 0 1 0 1.779 0 .89.89 0 0 0-1.779 0z"/></g><g><path fill="#bec8d1" d="M309.333 142.222a.889.889 0 1 0 1.778 0 .889.889 0 0 0-1.778 0z"/></g><g><path fill="#bec8d1" d="M309.333 161.777a.889.889 0 1 0 1.778 0 .889.889 0 0 0-1.778 0z"/></g><g><path fill="#bec8d1" d="M309.333 181.333a.89.89 0 1 0 1.779 0 .89.89 0 0 0-1.779 0z"/></g><g><path fill="#bec8d1" d="M309.333 200.888a.889.889 0 1 0 1.778 0 .889.889 0 0 0-1.778 0z"/></g><g><path fill="#bec8d1" d="M309.333 220.444a.89.89 0 1 0 1.779 0 .89.89 0 0 0-1.779 0z"/></g><g><path fill="#bec8d1" d="M309.333 240a.889.889 0 1 0 1.778-.001.889.889 0 0 0-1.778 0z"/></g><g><path fill="#bec8d1" d="M309.333 259.555a.889.889 0 1 0 1.778 0 .889.889 0 0 0-1.778 0z"/></g><g><path fill="#bec8d1" d="M309.333 279.11a.89.89 0 1 0 1.779 0 .89.89 0 0 0-1.779 0z"/></g></g><g opacity=".27"><g opacity=".27"><path fill="#9eb6d2" d="M253.456 137.127c-7.038-2.064-14.076-3.11-20.922-3.11-10.572 0-19.393 2.46-26.233 5.472 6.594-24.582 22.435-67 53.992-71.776 2.923-.443 5.318-2.594 6.115-5.491l6.897-25.12a7.747 7.747 0 0 0-.953-6.242 7.486 7.486 0 0 0-5.246-3.373A51.495 51.495 0 0 0 260.05 27c-37.878 0-75.39 40.26-91.22 97.904-9.292 33.818-12.016 84.662 10.872 116.665 12.808 17.907 31.494 27.47 55.539 28.425.099.003.195.006.293.006 29.669 0 55.977-20.346 63.98-49.473 4.781-17.413 2.62-35.675-6.09-51.433-8.618-15.582-22.81-26.94-39.968-31.966z"/></g><g opacity=".27"><path fill="#9eb6d2" d="M153.422 169.094c-8.617-15.585-22.81-26.942-39.967-31.969-7.038-2.063-14.076-3.11-20.92-3.11-10.572 0-19.396 2.46-26.236 5.472 6.594-24.582 22.436-66.998 53.996-71.775 2.922-.442 5.314-2.594 6.114-5.49l6.898-25.12a7.746 7.746 0 0 0-.954-6.242 7.473 7.473 0 0 0-5.245-3.373 51.429 51.429 0 0 0-7.056-.488c-37.879 0-75.392 40.259-91.224 97.902-9.29 33.818-12.014 84.662 10.877 116.67 12.806 17.904 31.495 27.47 55.537 28.422.099.003.195.006.297.006 29.665 0 55.977-20.346 63.98-49.473 4.775-17.412 2.611-35.677-6.097-51.432z"/></g></g></g></g></svg>